<?xml version="1.0" encoding="utf-8"?>
<!-- Generator: Adobe Illustrator 23.1.0, SVG Export Plug-In . SVG Version: 6.00 Build 0)  -->
<svg version="1.1" id="Capa_1" xmlns="http://www.w3.org/2000/svg" xmlns:xlink="http://www.w3.org/1999/xlink" x="0px" y="0px"
	 viewBox="0 0 500 500" style="enable-background:new 0 0 500 500;" xml:space="preserve">
<style type="text/css">
	.st0{fill:#F6DF19;}
	.st1{fill:#010101;}
</style>
<rect class="st0" width="500" height="500"/>
<g>
	<path class="st1" d="M355.6,235c-4,0-7.6,0.8-10.8,2.4c-3.2,1.6-5.9,3.9-8.2,6.9c-2.3,3-4,6.6-5.2,10.9c-1.2,4.3-1.8,9.2-1.8,14.5
		c0,5.7,0.4,10.6,1.2,14.6c0.8,4,1.9,7.4,3.5,9.9c1.5,2.6,3.4,4.5,5.7,5.7c2.2,1.2,4.8,1.8,7.6,1.8c4.2,0,8.2-1.7,12-5.1
		c3.8-3.4,7.8-8,12.1-14v-45.2c-2-0.7-4.4-1.4-7.3-1.8C361.4,235.3,358.5,235,355.6,235z"/>
	<path class="st1" d="M462.8,224.9c-13.6,0-23.2-3.3-29-9.8c-5.8-6.5-8.7-16.3-8.7-29.4v-32c0-27.5-6.5-47.6-19.4-60.2
		c-12.9-12.6-32.6-18.9-59-18.9h-16l-161.7-2h-16c-13.8,0-25.7,1.7-35.5,5c-9.8,3.4-17.9,8.3-24.3,14.9c-6.3,6.6-11,14.8-14,24.7
		c-3,9.9-4.5,21.4-4.5,34.4v33.5c0,6.6-0.7,12.3-2,17c-1.3,4.8-3.5,8.7-6.6,11.7c-3,3-7,5.3-11.8,6.8c-4.8,1.5-10.7,2.2-17.5,2.2H25
		v36h12c13.6,0,23.3,3.3,29.1,9.9c5.8,6.6,8.8,16.4,8.8,29.5v48.3c0,27.4,6.5,47.4,19.4,60c12.9,12.6,32.5,18.9,58.8,18.9h16
		l161.7,2h16c13.8,0,25.7-1.7,35.6-5c9.9-3.4,18-8.3,24.4-14.9c6.3-6.6,11-14.8,14-24.6c3-9.8,4.5-21.3,4.5-34.3v-50
		c0-6.6,0.7-12.3,2-17c1.3-4.8,3.5-8.7,6.5-11.7c3-3,6.9-5.3,11.7-6.8c4.8-1.5,10.7-2.2,17.5-2.2H475v-36H462.8z M141.6,311
		c-1,2.4-2.4,4.5-4.2,6.3c-1.8,1.8-3.9,3.2-6.4,4.3c-2.4,1.1-5.1,1.6-7.9,1.6c-2.7,0-5.3-0.5-7.6-1.6c-2.4-1.1-4.4-2.5-6.2-4.3
		c-1.8-1.8-3.2-3.9-4.2-6.3c-1-2.4-1.5-5-1.5-7.7c0-2.8,0.5-5.4,1.5-7.8c1-2.4,2.4-4.6,4.2-6.4c1.8-1.8,3.8-3.2,6.2-4.3
		c2.4-1.1,4.9-1.6,7.6-1.6c2.9,0,5.5,0.5,7.9,1.6c2.4,1.1,4.6,2.5,6.4,4.3c1.8,1.8,3.2,3.9,4.2,6.4c1,2.4,1.5,5.1,1.5,7.8
		C143.2,306,142.6,308.6,141.6,311z M289.7,320.8h-21.5v-70.5c0-2.6-0.1-4.8-0.2-6.8c-0.1-1.9-0.4-3.5-0.8-4.8
		c-0.4-1.3-1-2.3-1.8-2.9c-0.8-0.6-1.9-1-3.2-1c-2.1,0-4.2,1.4-6.2,4.3c-2,2.9-4.3,7.7-6.9,14.6v67.1h-21.3v-70.5
		c0-2.6-0.1-4.8-0.2-6.8c-0.1-1.9-0.4-3.5-0.8-4.8c-0.4-1.3-1-2.3-1.8-2.9c-0.8-0.6-1.9-1-3.3-1c-1.8,0-3.7,1.4-5.9,4.3
		c-2.2,2.9-4.6,7.7-7.2,14.6v67.1h-21.5V217.3h18.4l0.4,15.1c1.5-3.1,3-5.7,4.5-7.8c1.5-2.2,3.1-4,4.8-5.3c1.7-1.4,3.5-2.4,5.4-3
		c1.9-0.6,4.1-0.9,6.6-0.9c5.8,0,10.2,1.5,13.2,4.5c3,3,4.7,7.2,5.1,12.6c1.6-3.1,3.2-5.7,4.8-7.8c1.6-2.2,3.3-4,5-5.3
		c1.7-1.4,3.6-2.4,5.6-3c2-0.6,4.2-0.9,6.7-0.9c7.5,0,13.1,2.6,16.7,7.9c3.6,5.3,5.4,13.1,5.4,23.4V320.8z M396.5,320.8H375
		l-0.6-15.3c-2.2,2.6-4.4,5.1-6.7,7.2c-2.3,2.2-4.8,4-7.4,5.6s-5.5,2.7-8.5,3.6c-3,0.8-6.4,1.3-10,1.3c-6.1,0-11.5-1.2-16.3-3.7
		c-4.8-2.4-8.7-5.9-12-10.4c-3.2-4.5-5.7-10-7.4-16.4c-1.7-6.5-2.5-13.6-2.5-21.6c0-9.5,1.3-17.7,4-24.7c2.7-7,6.4-12.7,11.2-17.3
		c4.8-4.6,10.4-8,16.9-10.2c6.5-2.2,13.6-3.3,21.3-3.3c2.6,0,5.2,0.2,7.8,0.5c2.6,0.3,4.9,0.8,7,1.3v-40.4h24.9V320.8z"/>
</g>
</svg>
