<?xml version="1.0" encoding="utf-8"?>
<!-- Generator: Adobe Illustrator 23.1.0, SVG Export Plug-In . SVG Version: 6.00 Build 0)  -->
<svg version="1.1" id="Capa_1" xmlns="http://www.w3.org/2000/svg" xmlns:xlink="http://www.w3.org/1999/xlink" x="0px" y="0px"
	 viewBox="0 0 200 200" style="enable-background:new 0 0 200 200;" xml:space="preserve">
<style type="text/css">
	.st0{opacity:0.1;}
	.st1{fill:#3A2C15;}
	.st2{fill-rule:evenodd;clip-rule:evenodd;fill:#3A2D15;}
	.st3{fill:none;}
	.st4{fill:#3A2D15;}
	.st5{fill:#3A2E1A;}
	.st6{fill:#3A2F1B;}
</style>
<g class="st0">
	<g>
		<g id="XMLID_10291_">
			<path class="st1" d="M98.8,134.7L98.8,134.7l-2.1-1.3c-0.6-1.1-5.5-3.3-9-5c-8.9-4.2-21.2-9.9-26.6-19.2
				c-7.5-12.9-1.8-29.2,0.3-35.4c0.3-0.8,0.5-1.5,0.6-1.8c0.3-2.4-3.1-18.9-6.7-33.6l2.9-2.6c0.1,0,14,4.9,20.7,5.4
				c5.4,0.3,15.3-3.7,18.7-5.3l0.9-0.2h0.1l0.9,0.2c3.4,1.6,13.4,5.6,18.7,5.3c6.7-0.4,20.6-5.3,20.7-5.4l2.9,2.6
				c-3.6,14.6-7,31.2-6.7,33.6c0.1,0.4,0.3,1,0.6,1.8c2.1,6.2,7.8,22.5,0.3,35.4c-5.4,9.2-17.6,15-26.6,19.2c-3.5,1.7-8.4,3.9-9,5
				L98.8,134.7z M60.7,41.3c0.7,3.1,1.8,7.6,2.8,12.2c3.7,17,3.2,18.8,3,19.7c-0.1,0.5-0.4,1.2-0.7,2.2c-2,5.6-7.1,20.6-0.7,31.7
				c4.7,8,16.2,13.4,24.6,17.4c4.3,2,7.3,3.5,9.2,4.9c1.8-1.4,4.8-2.8,9.2-4.9c8.4-3.9,19.9-9.3,24.6-17.4C139.2,96,134,81,132,75.4
				c-0.3-1-0.6-1.7-0.7-2.2c-0.2-0.9-0.7-2.7,3-19.7c1-4.6,2-9.1,2.8-12.2c-4.8,1.6-13,4-18.1,4.3c-6.5,0.4-16.9-3.9-20-5.3
				c-3,1.3-12.5,5.3-19.1,5.3c-0.3,0-0.6,0-0.9,0C73.7,45.3,65.5,42.9,60.7,41.3z M62.1,72L62.1,72L62.1,72z"/>
		</g>
		<path id="XMLID_10290_" class="st2" d="M114.5,78.5c1.3,0.5,2.2,2.2,1.3,3.4c-0.5-0.5-1.2-1-1.9-1.3
			C114.3,80.1,113.9,78.8,114.5,78.5z"/>
		<path id="XMLID_10284_" class="st2" d="M99.6,72.4c3.4,0.4,7.5-0.9,9.9,1.7c0.3,0.4,1.1,1.9,0.9,2.4c0,0.1-1.2,1.9-2.6,1.7
			c-0.3,0.3-1.9,1.2-2.2,1.5c-0.4,0.3-0.4,1.5-1.5,1.7C104.1,81.3,98.9,84.6,99.6,72.4z M104.6,74.4c0.6,0.5,1.3,0.9,2.1,0.4
			c0.2,0.4,2,0.9,2.4,0C107.8,73.7,105.8,72.9,104.6,74.4z M105.2,78.5L105.2,78.5c0.6,0.1,1,0.1,1.4-0.4c0.1-0.2,0.4-0.4,0.1-0.9
			C105.8,77.3,105.4,77.8,105.2,78.5z"/>
		<path class="st3" d="M91.2,75.9c0.4,0.6-0.4,1.2,0.7,1.1c0.1-1.7-2.5-2.5-3.4-1.1C89.2,75.8,89.8,75.9,91.2,75.9z"/>
		<path class="st3" d="M98.2,98.7L98.2,98.7c0.9,1,3.2,1.2,4.3,1c0,0,0.7,0,0.7-0.4c0,0,0.2-0.7,0.2-1.1c-0.1-0.3-0.4-0.3-0.7-0.4
			C101.2,97.8,97.2,97.9,98.2,98.7z"/>
		<path class="st3" d="M93.6,78.9c-0.3-0.5-0.2-1.4-0.9-1.5c-0.5,0.5-0.8,1.5-1.7,1.7c-0.8,0.1-0.9-0.7-1.3,0
			C91,80,92.5,79.2,93.6,78.9z"/>
		<path class="st4" d="M102.3,122.1c1-0.5,2-1,3.2-1.5c7.3-3.4,17-8,22-14.2l-5.3-3.8c-1.4-1.5-3.2-2.2-4.9-3.5
			c-1.5-1.2-2.3-3.3-4.1-3.7c0.1,1,0.9,1.9,0.7,3c-0.5,2.8-2.8,5.5-4.5,8.4c-1.1,2-4.1,8.2-7,14.5l0,0l0,0
			C102.5,121.3,102.4,121.6,102.3,122.1z"/>
		<path class="st4" d="M117.9,63.4c0,0.1-0.2,0.2-0.2,0c-1-5.2-4.3-9.6-9-11.8c-3.9,0.3-7.2-1-10.5-0.7c-0.3,0-0.7,0.3-0.9,0.4
			c-0.8,0.1-1.4-0.2-2.2-0.2c-2.3-0.1-3.5,0.7-4.9,1.1c-3.8,1.2-4.8,1.9-6.7,4.3c-0.7,0.9-1.3,2-1.9,2.8c-1.1,1.7-2.6,4.6-2.8,6.5
			c-0.2,2.3,0.8,3.3,1.3,4.7c0.7,1.9,1.4,4,2.1,6c-1.5,0.1-1.7,1.7-1.7,2.6c-0.1,2.7,2.8,8.4,2.8,9.3c0.4,0.3,0.9,0.4,1.3,0.6
			c0.6,2,0.9,4.1,1.9,6.2c0.9,2,2.4,3.4,3.4,4.9c1.2,2,1,2.7,0,4.3c-1.2,2-2.7,3.2-4.1,4.7c-3.2,1.2-6,2.1-9.1,3.4
			c4.4,3,9.6,5.6,14.1,7.7c0.7-1,2-1.7,3.9-1.7c0.6,0,1.4-0.8,2.1-0.2c0.3,0.3,0.6,1,0.9,1.7c0.9,0.2,1.9,0.4,3,0.8
			c0.2,0,0.3,0,0.4,0c1.1-0.4,5.9-13.4,2.4-12.1c-0.8,0.3-4.3,2.5-4.9,3s-0.3,0.8-0.9,0.9c-0.8,0.1-6-4.2-6.9-4.3
			c0.1-1.3-0.3-2-0.2-3.2c1,1.1,1.5,2.7,2.6,3.7c0,0,3.6,2.1,4.5,2.1c3.5-2.5,8.2-5.7,11.2-9.5c4-5.1,4-8.9,3.9-10.5
			c0,0-3,3.1-10.1,0.7c-1.2,0.1-3-0.4-4.3-0.4h-0.6c-0.2,0-0.5-0.3-0.7-0.2c0-0.4,0.8-0.1,0.9,0h0.4c0.2-0.6,0.7-1,0.9-2
			c0.9-0.8,2.5-0.8,2.2-2.8c-1.3,0-2.7-0.1-3.4,0.7c-3.2-0.5-1.7-4.1-1.5-6.7c0.1-2.3-0.4-4.8-0.4-6.4c0,0-8.9-2-6.7-9.7
			c0.6-0.2,1.6-1.1,2.1-0.9c0.9,0.4,3.3-0.7,4.9-0.2c2.5-1,8.6-0.3,10.6-0.7c0.1,0.2,0.2,0.3,0.4,0.6c3.7,0.1,3.3,4.3,3.9,6.2
			c-0.1,0-0.2,0-0.4,0c0.3,2.4,2.5,4.1,2.2,7.1c0.6,0.5,0.5,0.8,0.9,1.1c1.3-0.7,1.3-2.7,3.4-2.6C119.8,72.3,119.3,66.3,117.9,63.4z
			 M102.7,97.8c0.4,0,0.6,0.1,0.7,0.4c0,0.4-0.2,1.1-0.2,1.1c0,0.4-0.7,0.4-0.7,0.4c-1.1,0.2-3.4,0-4.3-0.9l0,0
			C97.2,97.9,101.2,97.8,102.7,97.8z M93.6,78.9c-1,0.4-2.6,1.1-3.9,0.2c0.4-0.7,0.6,0.1,1.3,0c0.9-0.2,1.1-1.2,1.7-1.7
			C93.4,77.4,93.3,78.3,93.6,78.9z M91.9,77c-1.1,0.1-0.4-0.5-0.7-1.1c-1.4,0.1-2,0-2.6,0C89.4,74.5,92,75.3,91.9,77z"/>
		<path class="st4" d="M90.9,120.1L90.9,120.1L90.9,120.1L90.9,120.1z"/>
	</g>
	<g>
		<g>
			<path class="st5" d="M100.3,155.1c-18.5,0-37.1-7.1-51.2-21.2C36.3,121.2,28.8,104.3,28,86.3C27.1,68.5,32.8,51,44,37.2
				c0.4-0.4,1-0.5,1.5-0.2c0.4,0.4,0.5,1,0.2,1.5C34.7,51.9,29.2,68.9,30,86.2c0.9,17.5,8.2,33.9,20.5,46.2
				c27.4,27.4,72.1,27.4,99.5,0c12.4-12.4,19.7-28.9,20.5-46.4c0.8-17.4-4.7-34.4-15.7-47.8c-0.4-0.4-0.3-1.1,0.1-1.5
				c0.4-0.4,1.1-0.3,1.5,0.1c11.3,13.8,17,31.3,16.2,49.2c-0.9,18-8.4,35-21.1,47.7C137.4,148,118.8,155.1,100.3,155.1z"/>
		</g>
		<path class="st6" d="M30.7,34l-1.2,3.7c-0.2,1.1,0.1,2,0.7,2.7c0.8,0.9,2.2,1.5,4,1.8c1,0.2,1.8,0.1,3.4,0.2
			c-0.1-0.1-0.2-0.2-0.3-0.3c-0.1-0.3-0.1-0.8,0.1-1.4l1.2-3.7c0.2-1.1-0.1-2-0.7-2.7c-0.8-0.9-2.2-1.5-4-1.8
			c-1-0.2-1.8-0.1-3.4-0.2c0.1,0.1,0.2,0.2,0.3,0.3C30.9,32.8,30.9,33.3,30.7,34z"/>
		<path class="st6" d="M54.1,46.6l-2.8,2.7c-1,0.6-1.9,0.8-2.7,0.6c-1.2-0.3-2.3-1.3-3.4-2.8c-0.6-0.8-0.9-1.5-1.7-3
			c0.1,0.1,0.3,0.1,0.4,0.1c0.3,0,0.7-0.3,1.2-0.8l2.8-2.7c1-0.6,1.9-0.8,2.7-0.6c1.2,0.3,2.3,1.3,3.4,2.8c0.6,0.8,0.9,1.5,1.7,3
			c-0.1-0.1-0.3-0.1-0.4-0.1C55,45.8,54.6,46.1,54.1,46.6z"/>
		<path class="st6" d="M21.6,51.2L20.8,55c-0.1,1.2,0.3,2,0.9,2.6c0.9,0.8,2.3,1.3,4.2,1.4c1,0.1,1.8,0,3.4-0.1
			c-0.1-0.1-0.2-0.2-0.3-0.3c-0.1-0.3-0.1-0.8,0-1.4l0.8-3.8c0.1-1.2-0.3-2-0.9-2.6c-0.9-0.8-2.3-1.3-4.2-1.4c-1-0.1-1.8,0-3.4,0.1
			c0.1,0.1,0.2,0.2,0.3,0.3C21.8,50.1,21.8,50.6,21.6,51.2z"/>
		<path class="st6" d="M45.5,63.4l-2.5,3c-0.9,0.7-1.8,1-2.7,0.8c-1.2-0.2-2.4-1.1-3.7-2.5c-0.6-0.7-1.1-1.5-1.9-2.8
			c0.1,0.1,0.3,0.1,0.4,0c0.3-0.1,0.7-0.3,1.1-0.9l2.5-2.9c0.9-0.7,1.8-1,2.7-0.8c1.2,0.2,2.4,1.1,3.7,2.5c0.6,0.7,1.1,1.5,1.9,2.8
			c-0.1-0.1-0.3-0.1-0.4,0C46.4,62.6,46,62.9,45.5,63.4z"/>
		<path class="st6" d="M41.7,80L41,83.8c-0.4,1.1-1,1.8-1.9,2.1c-1.1,0.4-2.6,0.3-4.4-0.2c-0.9-0.3-1.7-0.7-3.1-1.4
			c0.2,0,0.3-0.1,0.4-0.2c0.2-0.2,0.4-0.6,0.5-1.3l0.6-3.8c0.4-1.1,1-1.8,1.9-2.1c1.1-0.4,2.6-0.3,4.4,0.2c0.9,0.3,1.7,0.7,3.1,1.4
			c-0.2,0-0.3,0.1-0.4,0.2C42,78.8,41.8,79.3,41.7,80z"/>
		<path class="st6" d="M15.5,91.1l1.2,3.7c0.5,1,1.2,1.6,2.1,1.8c1.2,0.3,2.6,0,4.3-0.9c0.9-0.4,1.5-0.9,2.9-1.8
			c-0.2,0-0.3,0-0.4-0.1c-0.3-0.2-0.5-0.6-0.7-1.2l-1.2-3.7c-0.5-1-1.2-1.6-2.1-1.8c-1.2-0.3-2.6,0-4.3,0.9
			c-0.9,0.4-1.5,0.9-2.9,1.8c0.2,0,0.3,0,0.4,0.1C15.1,90.1,15.3,90.5,15.5,91.1z"/>
		<path class="st6" d="M16.9,70.3l-0.3,3.9c0.1,1.1,0.5,2,1.3,2.5c1,0.7,2.5,1,4.3,0.8c1-0.1,1.8-0.3,3.4-0.6
			c-0.1,0-0.3-0.1-0.3-0.3C25,76.3,25,75.9,25,75.2l0.3-3.9c-0.1-1.1-0.5-2-1.3-2.5c-1-0.7-2.5-1-4.3-0.8c-1,0.1-1.8,0.3-3.4,0.6
			c0.1,0,0.3,0.1,0.3,0.3C16.9,69.1,16.9,69.6,16.9,70.3z"/>
		<path class="st6" d="M44.6,98.6l-0.3,3.9c-0.3,1.1-0.8,1.9-1.7,2.3c-1.1,0.5-2.6,0.6-4.4,0.2c-1-0.2-1.7-0.5-3.2-1.1
			c0.2,0,0.3-0.1,0.4-0.2c0.2-0.2,0.4-0.7,0.4-1.4l0.3-3.9c0.3-1.1,0.8-1.9,1.7-2.3c1.1-0.5,2.6-0.6,4.4-0.2c1,0.2,1.7,0.5,3.2,1.1
			c-0.2,0-0.3,0.1-0.4,0.2C44.8,97.5,44.7,97.9,44.6,98.6z"/>
		<path class="st6" d="M19.9,110.5l1.8,3.4c0.7,0.9,1.5,1.4,2.4,1.4c1.2,0.1,2.6-0.5,4.1-1.6c0.8-0.6,1.4-1.2,2.5-2.3
			c-0.1,0-0.3,0-0.4-0.1c-0.3-0.1-0.6-0.5-0.9-1.1l-1.8-3.4c-0.7-0.9-1.5-1.4-2.4-1.4c-1.2-0.1-2.6,0.5-4.1,1.6
			c-0.8,0.6-1.4,1.2-2.5,2.3c0.1,0,0.3,0,0.4,0.1C19.3,109.6,19.6,109.9,19.9,110.5z"/>
		<path class="st6" d="M51.6,114.5l1.4,3.6c0.2,1.1,0.1,2.1-0.5,2.8c-0.8,0.9-2.1,1.6-3.9,2.1c-1,0.2-1.8,0.3-3.4,0.4
			c0.1-0.1,0.2-0.2,0.2-0.4c0.1-0.3,0-0.8-0.2-1.4l-1.4-3.6c-0.2-1.1-0.1-2.1,0.5-2.8c0.8-0.9,2.1-1.6,3.9-2.1
			c1-0.2,1.8-0.3,3.4-0.4c-0.1,0.1-0.2,0.2-0.2,0.4C51.3,113.4,51.4,113.9,51.6,114.5z"/>
		<path class="st6" d="M28.6,129.8l2.9,2.5c1,0.6,1.9,0.7,2.8,0.4c1.1-0.4,2.2-1.4,3.2-3c0.5-0.8,0.8-1.6,1.5-3.1
			c-0.1,0.1-0.3,0.1-0.4,0.1c-0.3,0-0.7-0.2-1.3-0.7l-2.9-2.5c-1-0.6-1.9-0.7-2.8-0.4c-1.1,0.4-2.2,1.4-3.2,3
			c-0.5,0.8-0.8,1.6-1.5,3.1c0.1-0.1,0.3-0.1,0.4-0.1C27.7,129.1,28.1,129.3,28.6,129.8z"/>
		<path class="st6" d="M64.7,128.3l1.7,3.5c0.3,1.1,0.2,2-0.3,2.8c-0.7,1-1.9,1.8-3.7,2.4c-0.9,0.3-1.7,0.4-3.3,0.7
			c0.1-0.1,0.2-0.2,0.2-0.4c0.1-0.3,0-0.8-0.4-1.4l-1.7-3.5c-0.3-1.1-0.2-2,0.3-2.8c0.7-1,1.9-1.8,3.7-2.4c0.9-0.3,1.7-0.4,3.3-0.7
			c-0.1,0.1-0.2,0.2-0.2,0.4C64.3,127.3,64.4,127.7,64.7,128.3z"/>
		<path class="st6" d="M41.8,144.7l3.3,2c1.1,0.4,2,0.4,2.8-0.1c1.1-0.6,1.9-1.8,2.7-3.5c0.4-0.9,0.5-1.7,1-3.3
			c-0.1,0.1-0.2,0.2-0.4,0.2c-0.3,0-0.8-0.1-1.4-0.5l-3.3-2c-1.1-0.4-2-0.4-2.8,0.1c-1.1,0.6-1.9,1.8-2.7,3.5
			c-0.4,0.9-0.5,1.7-1,3.3c0.1-0.1,0.2-0.2,0.4-0.2C40.7,144.2,41.2,144.4,41.8,144.7z"/>
		<path class="st6" d="M58.7,157.8l3.9,0.3c1.1-0.1,2-0.5,2.5-1.3c0.7-1,1-2.5,0.9-4.3c-0.1-1-0.3-1.8-0.6-3.4
			c0,0.1-0.1,0.3-0.3,0.3c-0.3,0.2-0.7,0.2-1.4,0.2l-3.9-0.3c-1.1,0.1-2,0.5-2.5,1.3c-0.7,1-1,2.5-0.9,4.3c0.1,1,0.3,1.8,0.6,3.4
			c0-0.1,0.1-0.3,0.3-0.3C57.6,157.8,58.1,157.8,58.7,157.8z"/>
		<path class="st6" d="M79.3,137.1l3.3,2c0.9,0.8,1.3,1.6,1.2,2.5c0,1.2-0.7,2.5-1.9,4c-0.6,0.7-1.3,1.3-2.5,2.4c0-0.1,0-0.3,0-0.4
			c-0.1-0.3-0.4-0.6-1-1l-3.3-2c-0.9-0.8-1.3-1.6-1.2-2.5c0-1.2,0.7-2.5,1.9-4c0.6-0.7,1.3-1.3,2.5-2.4c0,0.1,0,0.3,0,0.4
			C78.4,136.4,78.7,136.7,79.3,137.1z"/>
		<path class="st6" d="M77.2,164.9h3.9c1.1-0.2,1.9-0.7,2.4-1.5c0.6-1.1,0.8-2.5,0.5-4.4c-0.1-1-0.4-1.7-0.9-3.3
			c0,0.1-0.1,0.3-0.3,0.4c-0.2,0.2-0.7,0.3-1.4,0.3h-3.9c-1.1,0.2-1.9,0.7-2.4,1.5c-0.6,1.1-0.8,2.5-0.5,4.4c0.1,1,0.4,1.7,0.9,3.3
			c0-0.1,0.1-0.3,0.3-0.4C76,165,76.5,164.9,77.2,164.9z"/>
		<path class="st6" d="M169.3,34l1.2,3.7c0.2,1.1-0.1,2-0.7,2.7c-0.8,0.9-2.2,1.5-4,1.8c-1,0.2-1.8,0.1-3.4,0.2
			c0.1-0.1,0.2-0.2,0.3-0.3c0.1-0.3,0.1-0.8-0.1-1.4l-1.2-3.7c-0.2-1.1,0.1-2,0.7-2.7c0.8-0.9,2.2-1.5,4-1.8c1-0.2,1.8-0.1,3.4-0.2
			c-0.1,0.1-0.2,0.2-0.3,0.3C169.1,32.8,169.1,33.3,169.3,34z"/>
		<path class="st6" d="M145.9,46.6l2.8,2.7c1,0.6,1.9,0.8,2.7,0.6c1.2-0.3,2.3-1.3,3.4-2.8c0.6-0.8,0.9-1.5,1.7-3
			c-0.1,0.1-0.3,0.1-0.4,0.1c-0.3,0-0.7-0.3-1.2-0.8l-2.8-2.7c-1-0.6-1.9-0.8-2.7-0.6c-1.2,0.3-2.3,1.3-3.4,2.8
			c-0.6,0.8-0.9,1.5-1.7,3c0.1-0.1,0.3-0.1,0.4-0.1C145,45.8,145.4,46.1,145.9,46.6z"/>
		<path class="st6" d="M178.4,51.2l0.8,3.8c0.1,1.2-0.3,2-0.9,2.6c-0.9,0.8-2.3,1.3-4.2,1.4c-1,0.1-1.8,0-3.4-0.1
			c0.1-0.1,0.2-0.2,0.3-0.3c0.1-0.3,0.1-0.8,0-1.4l-0.8-3.8c-0.1-1.2,0.3-2,0.9-2.6c0.9-0.8,2.3-1.3,4.2-1.4c1-0.1,1.8,0,3.4,0.1
			c-0.1,0.1-0.2,0.2-0.3,0.3C178.2,50.1,178.2,50.6,178.4,51.2z"/>
		<path class="st6" d="M154.5,63.4l2.5,2.9c0.9,0.7,1.8,1,2.7,0.8c1.2-0.2,2.4-1.1,3.7-2.5c0.6-0.7,1.1-1.5,1.9-2.8
			c-0.1,0.1-0.3,0.1-0.4,0c-0.3-0.1-0.7-0.3-1.1-0.9l-2.5-2.9c-0.9-0.7-1.8-1-2.7-0.8c-1.2,0.2-2.4,1.1-3.7,2.5
			c-0.6,0.7-1.1,1.5-1.9,2.8c0.1-0.1,0.3-0.1,0.4,0C153.6,62.6,154,62.9,154.5,63.4z"/>
		<path class="st6" d="M158.3,80l0.6,3.8c0.4,1.1,1,1.8,1.9,2.1c1.1,0.4,2.6,0.3,4.4-0.2c0.9-0.3,1.7-0.7,3.1-1.4
			c-0.2,0-0.3-0.1-0.4-0.2c-0.2-0.2-0.4-0.6-0.5-1.3l-0.6-3.8c-0.4-1.1-1-1.8-1.9-2.1c-1.1-0.4-2.6-0.3-4.4,0.2
			c-0.9,0.3-1.7,0.7-3.1,1.4c0.2,0,0.3,0.1,0.4,0.2C158,78.8,158.2,79.3,158.3,80z"/>
		<path class="st6" d="M184.5,91.1l-1.2,3.7c-0.5,1-1.2,1.6-2.1,1.8c-1.2,0.3-2.6,0-4.3-0.9c-0.9-0.4-1.5-0.9-2.9-1.8
			c0.2,0,0.3,0,0.4-0.1c0.3-0.2,0.5-0.6,0.7-1.2l1.2-3.7c0.5-1,1.2-1.6,2.1-1.8c1.2-0.3,2.6,0,4.3,0.9c0.9,0.4,1.5,0.9,2.9,1.8
			c-0.2,0-0.3,0-0.4,0.1C184.9,90.1,184.7,90.5,184.5,91.1z"/>
		<path class="st6" d="M183.1,70.3l0.3,3.9c-0.1,1.1-0.5,2-1.3,2.5c-1,0.7-2.5,1-4.3,0.8c-1-0.1-1.8-0.3-3.4-0.6
			c0.1,0,0.3-0.1,0.3-0.3c0.2-0.3,0.2-0.7,0.2-1.4l-0.3-3.9c0.1-1.1,0.5-2,1.3-2.5c1-0.7,2.5-1,4.3-0.8c1,0.1,1.8,0.3,3.4,0.6
			c-0.1,0-0.3,0.1-0.3,0.3C183.1,69.1,183.1,69.6,183.1,70.3z"/>
		<path class="st6" d="M155.4,98.6l0.3,3.9c0.3,1.1,0.8,1.9,1.7,2.3c1.1,0.5,2.6,0.6,4.4,0.2c1-0.2,1.7-0.5,3.2-1.1
			c-0.2,0-0.3-0.1-0.4-0.2c-0.2-0.2-0.4-0.7-0.4-1.4l-0.3-3.9c-0.3-1.1-0.8-1.9-1.7-2.3c-1.1-0.5-2.6-0.6-4.4-0.2
			c-1,0.2-1.7,0.5-3.2,1.1c0.2,0,0.3,0.1,0.4,0.2C155.2,97.5,155.3,97.9,155.4,98.6z"/>
		<path class="st6" d="M180.1,110.5l-1.8,3.4c-0.7,0.9-1.5,1.4-2.4,1.4c-1.2,0.1-2.6-0.5-4.1-1.6c-0.8-0.6-1.4-1.2-2.5-2.3
			c0.1,0,0.3,0,0.4-0.1c0.3-0.1,0.6-0.5,0.9-1.1l1.8-3.4c0.7-0.9,1.5-1.4,2.4-1.4c1.2-0.1,2.6,0.5,4.1,1.6c0.8,0.6,1.4,1.2,2.5,2.3
			c-0.1,0-0.3,0-0.4,0.1C180.7,109.6,180.4,109.9,180.1,110.5z"/>
		<path class="st6" d="M148.4,114.5l-1.4,3.6c-0.2,1.1-0.1,2.1,0.5,2.8c0.8,0.9,2.1,1.6,3.9,2.1c1,0.2,1.8,0.3,3.4,0.4
			c-0.1-0.1-0.2-0.2-0.2-0.4c-0.1-0.3,0-0.8,0.2-1.4l1.4-3.6c0.2-1.1,0.1-2.1-0.5-2.8c-0.8-0.9-2.1-1.6-3.9-2.1
			c-1-0.2-1.8-0.3-3.4-0.4c0.1,0.1,0.2,0.2,0.2,0.4C148.7,113.4,148.6,113.9,148.4,114.5z"/>
		<path class="st6" d="M171.4,129.8l-2.9,2.5c-1,0.6-1.9,0.7-2.8,0.4c-1.1-0.4-2.2-1.4-3.2-3c-0.5-0.8-0.8-1.6-1.5-3.1
			c0.1,0.1,0.3,0.1,0.4,0.1c0.3,0,0.7-0.2,1.3-0.7l2.9-2.5c1-0.6,1.9-0.7,2.8-0.4c1.1,0.4,2.2,1.4,3.2,3c0.5,0.8,0.8,1.6,1.5,3.1
			c-0.1-0.1-0.3-0.1-0.4-0.1C172.3,129.1,171.9,129.3,171.4,129.8z"/>
		<path class="st6" d="M135.3,128.3l-1.7,3.5c-0.3,1.1-0.2,2,0.3,2.8c0.7,1,1.9,1.8,3.7,2.4c0.9,0.3,1.7,0.4,3.3,0.7
			c-0.1-0.1-0.2-0.2-0.2-0.4c-0.1-0.3,0-0.8,0.4-1.4l1.7-3.5c0.3-1.1,0.2-2-0.3-2.8c-0.7-1-1.9-1.8-3.7-2.4
			c-0.9-0.3-1.7-0.4-3.3-0.7c0.1,0.1,0.2,0.2,0.2,0.4C135.7,127.3,135.6,127.7,135.3,128.3z"/>
		<path class="st6" d="M158.2,144.7l-3.3,2c-1.1,0.4-2,0.4-2.8-0.1c-1.1-0.6-1.9-1.8-2.7-3.5c-0.4-0.9-0.5-1.7-1-3.3
			c0.1,0.1,0.2,0.2,0.4,0.2c0.3,0,0.8-0.1,1.4-0.5l3.3-2c1.1-0.4,2-0.4,2.8,0.1c1.1,0.6,1.9,1.8,2.7,3.5c0.4,0.9,0.5,1.7,1,3.3
			c-0.1-0.1-0.2-0.2-0.4-0.2C159.3,144.2,158.8,144.4,158.2,144.7z"/>
		<path class="st6" d="M141.3,157.8l-3.9,0.3c-1.1-0.1-2-0.5-2.5-1.3c-0.7-1-1-2.5-0.9-4.3c0.1-1,0.3-1.8,0.6-3.4
			c0,0.1,0.1,0.3,0.3,0.3c0.3,0.2,0.7,0.2,1.4,0.2l3.9-0.3c1.1,0.1,2,0.5,2.5,1.3c0.7,1,1,2.5,0.9,4.3c-0.1,1-0.3,1.8-0.6,3.4
			c0-0.1-0.1-0.3-0.3-0.3C142.4,157.8,141.9,157.8,141.3,157.8z"/>
		<path class="st6" d="M120.7,137.1l-3.3,2c-0.9,0.8-1.3,1.6-1.2,2.5c0,1.2,0.7,2.5,1.9,4c0.6,0.7,1.3,1.3,2.5,2.4
			c0-0.1,0-0.3,0-0.4c0.1-0.3,0.4-0.6,1-1l3.3-2c0.9-0.8,1.3-1.6,1.2-2.5c0-1.2-0.7-2.5-1.9-4c-0.6-0.7-1.3-1.3-2.5-2.4
			c0,0.1,0,0.3,0,0.4C121.6,136.4,121.3,136.7,120.7,137.1z"/>
		<path class="st6" d="M122.8,164.9h-3.9c-1.1-0.2-1.9-0.7-2.4-1.5c-0.6-1.1-0.8-2.5-0.5-4.4c0.1-1,0.4-1.7,0.9-3.3
			c0,0.1,0.1,0.3,0.3,0.4c0.2,0.2,0.7,0.3,1.4,0.3h3.9c1.1,0.2,1.9,0.7,2.4,1.5c0.6,1.1,0.8,2.5,0.5,4.4c-0.1,1-0.4,1.7-0.9,3.3
			c0-0.1-0.1-0.3-0.3-0.4C124,165,123.5,164.9,122.8,164.9z"/>
		<path class="st6" d="M99.3,139.1l3.5,1.7c0.9,0.7,1.4,1.5,1.5,2.4c0.1,1.2-0.5,2.6-1.5,4.1c-0.6,0.8-1.2,1.4-2.3,2.6
			c0-0.1,0-0.3-0.1-0.4c-0.1-0.3-0.5-0.6-1.1-0.9l-3.5-1.7c-0.9-0.7-1.4-1.5-1.5-2.4c-0.1-1.2,0.5-2.6,1.5-4.1
			c0.6-0.8,1.2-1.4,2.3-2.6c0,0.1,0,0.3,0.1,0.4C98.4,138.4,98.7,138.7,99.3,139.1z"/>
		<path class="st6" d="M99.7,167l3.9-0.4c1.1-0.3,1.9-0.9,2.2-1.7c0.5-1.1,0.5-2.6,0.1-4.4c-0.2-1-0.6-1.7-1.2-3.2
			c0,0.2-0.1,0.3-0.2,0.4c-0.2,0.2-0.7,0.4-1.4,0.4l-3.9,0.4c-1.1,0.3-1.9,0.9-2.2,1.7c-0.5,1.1-0.5,2.6-0.1,4.4
			c0.2,1,0.6,1.7,1.2,3.2c0-0.2,0.1-0.3,0.2-0.4C98.6,167.2,99.1,167,99.7,167z"/>
	</g>
</g>
</svg>
