<?xml version="1.0" encoding="utf-8"?>
<!-- Generator: Adobe Illustrator 23.1.0, SVG Export Plug-In . SVG Version: 6.00 Build 0)  -->
<svg version="1.1" id="Capa_1" xmlns="http://www.w3.org/2000/svg" xmlns:xlink="http://www.w3.org/1999/xlink" x="0px" y="0px"
	 viewBox="0 0 500 500" style="enable-background:new 0 0 500 500;" xml:space="preserve">
<style type="text/css">
	.st0{opacity:1.000000e-02;fill:none;stroke:#F6DF19;stroke-width:0.25;stroke-miterlimit:10;}
	.st1{opacity:0.1;}
	.st2{fill:#010101;}
</style>
<rect id="XMLID_339_" x="-0.2" y="0" class="st0" width="500" height="500"/>
<g class="st1">
	<path class="st2" d="M249.8,100c-82.7,0-150,67.3-150,150s67.3,150,150,150c82.7,0,150-67.3,150-150S332.5,100,249.8,100z
		 M249.8,386.5c-75.3,0-136.5-61.2-136.5-136.5s61.2-136.5,136.5-136.5S386.3,174.7,386.3,250S325.1,386.5,249.8,386.5z"/>
	<path class="st2" d="M254.5,244.5c0.1-0.1,0.3-0.2,0.4-0.2c-0.1,0-0.3,0.1-0.4,0.1V244.5z"/>
	<path class="st2" d="M222.9,237.4c6.1,0,11-4.9,11-11c0-0.6-0.1-1.2-0.2-1.8c-1.6,3.3-5.9,5.6-11,5.6c-4.9,0-9-2.2-10.8-5.2
		c-0.1,0.4-0.1,0.9-0.1,1.3C211.9,232.4,216.8,237.4,222.9,237.4z"/>
	<path class="st2" d="M271.3,230.1c-4.9,0-9-2.2-10.8-5.2c-0.1,0.4-0.1,0.9-0.1,1.3c0,6.1,4.9,11,11,11c6.1,0,11-4.9,11-11
		c0-0.6-0.1-1.2-0.2-1.8C280.7,227.7,276.4,230.1,271.3,230.1z"/>
	<path class="st2" d="M258,276.2h-1c-0.3,1.1-1.3,1.9-2.5,1.9h-15.5c-1.2,0-2.2-0.8-2.5-1.9h-1.8c-1.7,0-3.1,1.4-3.1,3.1v0.9
		c0,1.7,1.4,3.1,3.1,3.1H258c1.7,0,3.1-1.4,3.1-3.1v-0.9C261.1,277.6,259.7,276.2,258,276.2z"/>
	<path class="st2" d="M254.2,244.3v0.1c0.1-0.1,0.3-0.2,0.4-0.2C254.4,244.3,254.3,244.3,254.2,244.3z"/>
	<path class="st2" d="M221.2,225.5c0.6,0.1,1.2,0.2,1.8,0.2c2,0,3.8-0.5,5.4-1.4c0.8-1,1.3-2.2,1.3-3.5c0-1.8-0.8-3.3-2.1-4.4
		c-1.4-0.7-3-1-4.6-1c-0.2,0-0.4,0-0.6,0c-2.3,0.7-4,2.8-4,5.4C218.4,222.8,219.5,224.6,221.2,225.5z M224,218.5
		c1.3,0,2.3,1,2.3,2.3c0,1.3-1,2.3-2.3,2.3s-2.3-1-2.3-2.3C221.7,219.5,222.7,218.5,224,218.5z"/>
	<path class="st2" d="M271.1,225.7c0.6,0,1.2-0.1,1.8-0.2c1.6-1,2.7-2.8,2.7-4.8c0-2.5-1.7-4.6-4-5.4c-0.2,0-0.4,0-0.6,0
		c-1.7,0-3.2,0.4-4.6,1c-1.3,1-2.1,2.6-2.1,4.4c0,1.3,0.5,2.6,1.3,3.5C267.3,225.2,269.2,225.7,271.1,225.7z M270.2,218.5
		c1.3,0,2.3,1,2.3,2.3c0,1.3-1,2.3-2.3,2.3s-2.3-1-2.3-2.3C267.9,219.5,268.9,218.5,270.2,218.5z"/>
	<path class="st2" d="M215.7,195.1h60.9c0.9,0,1.6-0.7,1.6-1.6c0-0.9-0.7-1.6-1.6-1.6h-60.9c-0.9,0-1.6,0.7-1.6,1.6
		C214.1,194.4,214.8,195.1,215.7,195.1z"/>
	<g>
		<path class="st2" d="M205,305.1c-0.1,0.7-0.3,1.3-0.4,1.9c0,0,0,0,0,0l-5.2-7.2l-22.2,16l8,11.1c0.5,0.7,1,1.5,1.7,2.4
			c-6.6,4.3-14.1,8.8-20.7,12.5c21.4,19.5,49.5,31.6,80.5,32.3l1-3.9l-13.2-3.6c-2.4-0.7-3.4-4.3-3.4-4.3l-1.3-5.9
			c-2.7-12.4-10-26-15.6-35.2c0.1-0.2,0.2-0.4,0.2-0.6c0.2-0.6,0.4-1.3,0.6-1.9l0.6-1.9l-0.4,0.9c1-2.3,1.5-4.5,1.7-6.4
			c0.1-1,0.2-1.9,0.2-2.8c0-0.9,0.1-1.8,0-2.7c-0.1-3.5-0.5-6.7-1-9.9c-0.2-1.2-0.4-2.3-0.6-3.5c8.8,7.8,20.3,12.5,33,12.5
			c15.1,0,28.6-6.7,37.8-17.3c0,0.6-0.1,1.3-0.2,1.9c-0.2,3.2-0.2,6.4,0.1,9.8c0.1,1.7,0.4,3.4,0.8,5.3c0.4,1.8,1,3.8,2.2,5.9
			l-0.4-0.7c0.5,1.1,0.9,2.1,1.4,3.1c0.5,1.1,1,2.1,1.9,3.4l0.4,0.5l0.6,0.7l0.2,0.3c0.2,0.3,0.4,0.6,0.6,0.9
			c0.2,0.3,0.4,0.7,0.6,1.1c-2.5,10.9-7.6,22.8-17.7,28.6l-8.1,4.6l2.8,19c27.5-4.9,52-18.8,70-38.7v-11.6l-21.5-8.1
			c-0.4-3.5-1.1-6.7-2-9.3l-4.2-13l-16.9,5.3c0,0,0,0.6,0,1.6c-0.1-0.2-0.1-0.4-0.2-0.6c-0.6-2.6-1-5.5-1.3-8.4
			c-0.3-2.9-0.4-5.9-0.4-8.8c0-0.7,0-1.5,0-2.1l0.1-2.3l0.1-2.2l0.1-1.1l0-0.5v0c1.8-4.7,2.8-9.8,3.1-15.1c0,0,0.1,0,0.1,0
			c3.9,0.7,7.6-1.9,8.2-5.8l4.9-28.1c1.5-0.3,2.5-1.7,2.4-3.2c-0.4-5.3-3.7-9.7-8.3-11.8c2.5-5.8,3.9-12.2,3.9-19c0-2-0.1-4-0.4-5.9
			c1.2-0.6,2.2-1.6,2.9-2.8c5.6-9.1,2.7-21-6.3-26.6c-2.1-1.3-4.3-2.1-6.6-2.5c-5.2-7.9-12.7-14.2-21.5-18
			c-2.7-3.1-6.7-5.1-11.2-5.1h-29.8c-3.4,0-6.5,1.2-9,3.1c-6.8,1-13.2,3.4-18.8,6.9c0.8-1.7,2-3.4,3.4-4.8c1.5-1.5,1.5-4,0-5.5
			c-1.5-1.5-4-1.5-5.5,0c-5,5-7.6,11.7-7.5,18.3c-7.8,8.4-12.6,19.5-12.8,31.8c-0.9,3.6-1.3,7.3-1.3,11.1c0,8.9,2.5,17.3,6.7,24.5
			c-3.7,0.8-6.2,4.4-5.6,8.2l5.1,29.4c0.6,3.5,3.8,6,7.2,5.9c0.4,8.1,2.7,15.7,6.5,22.4l0.4,3.5l0.2,2.2c0,0.4,0,0.6,0,1l0,1.1
			c0.1,2.9,0.1,5.9-0.1,8.8C205.8,299.7,205.5,302.5,205,305.1z M302.9,214.3c0.1,0,0.1,0,0.2,0.1c-0.1,0-0.2,0-0.3,0.1
			C302.9,214.4,302.9,214.4,302.9,214.3z M248.7,290.3c-11.3,0-21.8-3.7-30.2-10c0.5-2.1,1.2-3.9,2.3-5.5c0.4-0.6,0.8-1.2,1.3-1.7
			c0.2-0.3,0.5-0.5,0.8-0.7l1-0.8c0.7-0.5,1.3-1.1,2-1.6h18.9c-0.5-0.6-0.7-1.3-0.7-2v-4.9c1-0.1,2.1-0.2,3.1-0.2
			c1.1,0,2.2,0.1,3.3,0.2v4.8c0,0.8-0.3,1.5-0.7,2h18.6l0.1,0c0.7,0.5,1.3,1.1,2,1.6l1,0.8c0.2,0.2,0.5,0.5,0.7,0.7
			c0.5,0.5,0.9,1.1,1.3,1.7c1.4,2.1,2.3,4.6,2.6,7.4C268.1,287.3,258.8,290.3,248.7,290.3z M211.2,221.9c0-4.7,5.2-8.4,11.7-8.4
			c3.5,0,6.6,1.1,8.7,2.9c1.7,2.4,2.8,5.2,3.1,8.4c0.6,9-6.1,16.8-15.1,17.5c-9,0.6-16.8-6.1-17.5-15.1c-0.4-4.9,1.5-9.4,4.7-12.6
			c-1.5,2.5-2.4,5.5-2.4,8.6L211.2,221.9z M238.1,234.8c1.4-3.2,2.1-6.7,1.9-10.5c-0.1-2-0.6-4-1.3-5.8c0.1,0,0.2-0.1,0.3-0.1
			c3.3-2.2,6.2-2.4,9.2-0.8c0.4,0.2,0.9,0.4,1.4,0.4c-0.4,1.8-0.5,3.7-0.4,5.6c0.4,5.4,2.7,10.2,6.3,13.7v5c0.3,0.2,0.6,0.5,0.9,0.8
			l4.9,4.9c0,0,0,0,0,0c0,2.5-2,4.5-4.5,4.5c-1.1,0-2-0.4-2.8-1c-0.2,0.9-0.5,1.8-1,2.5c0,0-0.1,0-0.1,0c-1.3,1.9-3.4,3.1-5.9,3.1
			c-2.4,0-4.5-1.2-5.8-3.1c0,0,0,0-0.1,0c-0.4-0.6-0.7-1.2-0.9-1.8c-0.5,0.2-1,0.3-1.5,0.3c-2.2,0-4.1-1.6-4.5-3.8l5.7-5.7
			c0.4-0.4,0.9-0.8,1.4-1.2v-8.8C240.2,233.6,239.1,234.2,238.1,234.8z M258.3,214.1c-1.5,2.6-2.4,5.5-2.4,8.7l4.1-1.2
			c0-4.7,5.2-8.4,11.7-8.4c6.4,0,11.7,3.8,11.7,8.4l4,0.7c-0.1,8.4-6.6,15.4-15.1,16.1c-9,0.6-16.8-6.1-17.5-15.1
			c-0.3-4.8,1.4-9.2,4.5-12.4c-0.4,0.8-0.6,1.5-0.8,2.4C258.1,213.5,258.2,213.8,258.3,214.1z M263.8,250.5l8.8,8.8
			c1.6,1.6,2.7,3.6,3.1,5.8c-0.7-0.6-1.3-1.2-2-1.8l-2.5-1.9c-3-2.1-6.2-3.9-9.7-5.1c1.4-1.3,2.4-3.2,2.4-5.3
			C263.9,250.8,263.8,250.7,263.8,250.5z M231.5,251.6c0.1,1.7,0.9,3.3,2.1,4.4c-3.7,1.3-7.3,3.2-10.5,5.4l-1.6,1.2
			c0.6-1.2,1.3-2.3,2.3-3.3L231.5,251.6z M298.3,240.8c0,14.5-9.9,31.3-16.2,36.9c0-1.1-0.2-2.2-0.5-3.3c0.8-0.5,1.5-1.4,1.7-2.4
			c1.5-6.6-0.4-13.4-5.2-18.2l-10.3-10.3c1.5,0.2,3,0.3,4.6,0.2c11.9-0.9,20.9-11.3,20.1-23.2c-0.2-2.1-0.6-4.2-1.3-6.1l7.7-0.6
			L298.3,240.8z M199.1,183.3c0-7.8,1.8-15.2,5-21.7c0.8,1.2,1.8,2.4,2.9,3.5c4.9,4.9,11.3,7.6,18.2,7.6c5.5,0,10.6-1.7,15-4.8h35.2
			c1.1,0,2.2-0.1,3.2-0.3c0.6,1.6,1.6,3.1,3.2,4.1c3.7,2.2,8.5,1.1,10.7-2.6c0.7-1.2,1.8-1.5,2.3-1.7c0.3-0.1,0.8-0.1,1.3-0.1
			c0.8,2.5,1.5,5,1.9,7.7c-0.5,2-0.3,4,0.7,5.8c0,0.9,0.1,1.7,0.1,2.6v24.4l-9.1,0.7c-0.1,0-0.2,0-0.3,0c0.1-0.1,0.2-0.2,0.2-0.4
			c0.2-0.6,0-1.2-0.5-1.6c-2.2-2-5-3.4-8-4.2c-1-0.2-2-0.4-3-0.5c-2.8-1-5.8-1.5-8.9-1.2c-7.9,0.6-14.5,5.3-17.8,11.9
			c-0.1-0.1-0.2-0.1-0.3-0.2c-3.6-2-7.4-2.4-11.1-1.2c-1-2.1-2.5-4-4.4-5.4c-2.5-1.9-5.5-3.1-8.6-3.7c-3.1-0.6-6.3-0.5-9.3,0.3
			c-2.6,0.7-4.9,1.8-7,3.4c-5.1,1.9-9.3,5.7-11.7,10.4V183.3z M200.6,254.9c-1.3-4.5-2-9.2-2-14.1v-6.2c3.6,8.2,12,13.6,21.4,12.9
			c2.1-0.2,4.1-0.6,5.9-1.3l-7.6,7.6c-4.8,4.8-6.7,11.6-5.2,18.2c0,0.2,0.1,0.4,0.2,0.5c-0.3,0.8-0.6,1.7-0.7,2.6
			C207.1,269.4,202.9,262.6,200.6,254.9z"/>
	</g>
</g>
</svg>
