<?xml version="1.0" encoding="utf-8"?>
<!-- Generator: Adobe Illustrator 23.1.0, SVG Export Plug-In . SVG Version: 6.00 Build 0)  -->
<svg version="1.1" id="Capa_1" xmlns="http://www.w3.org/2000/svg" xmlns:xlink="http://www.w3.org/1999/xlink" x="0px" y="0px"
	 viewBox="0 0 500 500" style="enable-background:new 0 0 500 500;" xml:space="preserve">
<style type="text/css">
	.st0{fill:#010101;}
</style>
<g>
	<path class="st0" d="M316,240.6c-2.5,0-4.8,0.5-6.8,1.5c-2,1-3.7,2.5-5.1,4.3c-1.4,1.9-2.5,4.2-3.3,6.8c-0.8,2.7-1.1,5.7-1.1,9.1
		c0,3.6,0.2,6.6,0.7,9.1c0.5,2.5,1.2,4.6,2.2,6.2c1,1.6,2.1,2.8,3.5,3.5c1.4,0.7,3,1.1,4.8,1.1c2.6,0,5.1-1.1,7.5-3.2
		c2.4-2.1,4.9-5,7.6-8.7v-28.3c-1.2-0.5-2.7-0.8-4.6-1.1C319.7,240.8,317.9,240.6,316,240.6z"/>
	<path class="st0" d="M383.1,234.3c-8.5,0-14.5-2-18.1-6.1c-3.6-4.1-5.4-10.2-5.4-18.4v-20c0-17.2-4-29.8-12.1-37.7
		c-8.1-7.9-20.4-11.8-36.9-11.8h-10L199.4,139h-10c-8.6,0-16,1.1-22.2,3.2c-6.1,2.1-11.2,5.2-15.2,9.3c-4,4.1-6.9,9.3-8.7,15.5
		c-1.9,6.2-2.8,13.4-2.8,21.5v20.9c0,4.1-0.4,7.7-1.2,10.6c-0.8,3-2.2,5.4-4.1,7.3c-1.9,1.9-4.4,3.3-7.4,4.2
		c-3,0.9-6.7,1.4-10.9,1.4h-7.5v22.5h7.5c8.5,0,14.6,2.1,18.2,6.2c3.6,4.1,5.5,10.3,5.5,18.4v30.2c0,17.1,4,29.6,12.1,37.5
		c8.1,7.9,20.3,11.8,36.8,11.8h10l101.1,1.3h10c8.6,0,16.1-1.1,22.2-3.2c6.2-2.1,11.3-5.2,15.2-9.3c4-4.1,6.9-9.3,8.7-15.4
		c1.9-6.1,2.8-13.3,2.8-21.5v-31.3c0-4.1,0.4-7.7,1.2-10.6c0.8-3,2.2-5.4,4-7.3c1.9-1.9,4.3-3.3,7.3-4.2c3-0.9,6.7-1.4,10.9-1.4h7.6
		v-22.5H383.1z M182.2,288.1c-0.6,1.5-1.5,2.8-2.6,3.9c-1.1,1.1-2.5,2-4,2.7s-3.2,1-5,1c-1.7,0-3.3-0.3-4.8-1
		c-1.5-0.7-2.8-1.5-3.9-2.7c-1.1-1.1-2-2.4-2.6-3.9c-0.6-1.5-1-3.1-1-4.8c0-1.7,0.3-3.4,1-4.9c0.6-1.5,1.5-2.9,2.6-4
		c1.1-1.1,2.4-2,3.9-2.7c1.5-0.7,3.1-1,4.8-1c1.8,0,3.4,0.3,5,1c1.5,0.7,2.9,1.6,4,2.7c1.1,1.1,2,2.5,2.6,4c0.6,1.5,1,3.2,1,4.9
		C183.2,285,182.9,286.6,182.2,288.1z M274.8,294.3h-13.4v-44.1c0-1.6,0-3-0.1-4.2c-0.1-1.2-0.3-2.2-0.5-3c-0.3-0.8-0.6-1.4-1.1-1.8
		c-0.5-0.4-1.2-0.6-2-0.6c-1.3,0-2.6,0.9-3.9,2.7c-1.3,1.8-2.7,4.8-4.3,9.1v42h-13.3v-44.1c0-1.6,0-3-0.1-4.2
		c-0.1-1.2-0.3-2.2-0.5-3c-0.3-0.8-0.6-1.4-1.1-1.8c-0.5-0.4-1.2-0.6-2-0.6c-1.1,0-2.3,0.9-3.7,2.7c-1.4,1.8-2.9,4.8-4.5,9.1v42
		h-13.4v-64.7h11.5l0.3,9.4c0.9-1.9,1.9-3.5,2.8-4.9c0.9-1.4,1.9-2.5,3-3.3c1.1-0.9,2.2-1.5,3.4-1.9s2.6-0.6,4.1-0.6
		c3.6,0,6.4,0.9,8.2,2.8c1.9,1.9,3,4.5,3.2,7.9c1-1.9,2-3.5,3-4.9c1-1.4,2-2.5,3.1-3.3c1.1-0.9,2.2-1.5,3.5-1.9
		c1.3-0.4,2.6-0.6,4.2-0.6c4.7,0,8.2,1.6,10.4,4.9c2.2,3.3,3.4,8.2,3.4,14.6V294.3z M341.6,294.3h-13.4l-0.4-9.6
		c-1.4,1.7-2.8,3.2-4.2,4.5c-1.4,1.4-3,2.5-4.6,3.5s-3.4,1.7-5.3,2.2c-1.9,0.5-4,0.8-6.3,0.8c-3.8,0-7.2-0.8-10.2-2.3
		c-3-1.5-5.5-3.7-7.5-6.5c-2-2.8-3.6-6.3-4.6-10.3c-1.1-4-1.6-8.5-1.6-13.5c0-5.9,0.8-11.1,2.5-15.4c1.7-4.4,4-8,7-10.8
		c3-2.9,6.5-5,10.6-6.4c4.1-1.4,8.5-2.1,13.3-2.1c1.6,0,3.2,0.1,4.9,0.3c1.6,0.2,3.1,0.5,4.4,0.8v-25.3h15.5V294.3z"/>
</g>
</svg>
