<?xml version="1.0" encoding="utf-8"?>
<!-- Generator: Adobe Illustrator 23.1.0, SVG Export Plug-In . SVG Version: 6.00 Build 0)  -->
<svg version="1.1" id="Capa_1" xmlns="http://www.w3.org/2000/svg" xmlns:xlink="http://www.w3.org/1999/xlink" x="0px" y="0px"
	 viewBox="0 0 500 500" style="enable-background:new 0 0 500 500;" xml:space="preserve">
<path d="M500,249.6c0-15.5-15.8-28.8-20.8-44c-4.9-14.8,0.7-33.3-3.8-48.1c-4.5-14.7-19.5-26.6-24.6-41.5
	c-5.1-14.9-1.9-35.3-13.3-46.8c-11.4-11.4-31.9-8.2-46.8-13.3c-14.9-5.1-26.9-20.1-41.5-24.6c-14.7-4.5-33.2,1.1-48.1-3.8
	c-15.2-5-28.5-20.8-44-20.8c-15.5,0-28.8,15.8-44,20.8c-14.8,4.9-33.3-0.7-48.1,3.8c-14.7,4.5-26.6,19.5-41.5,24.6
	c-14,4.8-32.9,2.2-44.7,11.5c-1.1-1.3-2.2-2.6-3.4-3.9c-17.3-17.3-45.2-17.3-62.5,0s-17.3,45.2,0,62.5c10,10,23.7,14.2,36.7,12.6
	c-4.5,6.1-8.7,12.2-10.8,18.9c-4.5,14.7,1.1,33.2-3.8,48.1c-5,15.2-20.8,28.5-20.8,44c0,15.5,15.8,28.8,20.8,44
	c4.6,14-0.1,31.2,3.1,45.4C15.1,378.3,20.4,429.6,54,463.3c30.2,30.2,74.5,37.5,111.6,22.1h-2.5c-4.6-13.7-6.4-46.3-6.4-81.5V173
	h39.9v131c0,34.4,14.7,62.8,49.9,62.8c26.6,0,45.8-19.2,53.1-37.1c2.3-6,3.7-13.3,3.7-20.6V173h39.9v160.8c0,24.3,5,33.9,21.1,34.8
	l-3.2,29.3c-4.6,1.4-7.3,1.8-13.7,1.8c-19.7,0-35.7-11-39.4-39.4h-1.4c-9.2,17.4-30.7,38.5-63.7,38.5c-20.2,0-38.9-7.3-48.6-24.3
	V402c0,18.7,0.3,47,2.5,67.5c5.7,0,11.2,0.5,16.3,2.2c15.2,5,28.5,20.8,44,20.8c15.5,0,28.8-15.8,44-20.8
	c14.8-4.9,33.3,0.7,48.1-3.8c14.7-4.5,26.6-19.5,41.5-24.6c14.9-5.1,35.3-1.9,46.8-13.3c11.4-11.4,8.2-31.9,13.3-46.8
	c5.1-14.9,20.1-26.9,24.6-41.5c4.5-14.7-1.1-33.2,3.8-48.1C484.2,278.4,500,265.1,500,249.6z"/>
</svg>
