<?xml version="1.0" encoding="utf-8"?>
<!-- Generator: Adobe Illustrator 23.1.0, SVG Export Plug-In . SVG Version: 6.00 Build 0)  -->
<svg version="1.1" id="Capa_1" xmlns="http://www.w3.org/2000/svg" xmlns:xlink="http://www.w3.org/1999/xlink" x="0px" y="0px"
	 viewBox="0 0 500 500" style="enable-background:new 0 0 500 500;" xml:space="preserve">
<style type="text/css">
	.st0{fill:#010101;}
</style>
<g>
	<g>
		<g>
			<path class="st0" d="M249.8,500C112,500-0.2,387.8-0.2,250S112,0,249.8,0s250,112.2,250,250S387.7,500,249.8,500z M249.8,33.3
				C130.4,33.3,33.2,130.5,33.2,250s97.2,216.7,216.7,216.7S466.5,369.4,466.5,250S369.3,33.3,249.8,33.3z"/>
		</g>
	</g>
	<g>
		<path class="st0" d="M264.8,243.1c0.2-0.1,0.4-0.3,0.6-0.4c-0.2,0.1-0.4,0.1-0.6,0.2V243.1z"/>
		<path class="st0" d="M308.4,183.3c3.5,0.2,7,0.9,10.6,2l0.1,0c1.4,0.4,2.8-0.4,3.2-1.8c0.3-1,0-2-0.8-2.7c-3.6-3.2-8.2-5.5-13-6.8
			c-4.9-1.2-10.1-1.4-15.1-0.4c-5,1-9.9,2.9-14,6c-4.1,3.1-7.3,7.4-8.5,12.4c-0.1,0.5,0,1,0.1,1.4c-2.5,4.2-3.9,9-3.9,14.2l6.6-1.9
			c0-7.6,8.5-13.7,19-13.7c10.5,0,19,6.1,19,13.7l11.1,1.9C322.9,197.2,317,188.1,308.4,183.3z"/>
		<path class="st0" d="M234.2,179.7c-4.1-3.1-9-5-14-6c-5-1-10.2-0.8-15.1,0.4c-4.9,1.3-9.4,3.5-13,6.8c-0.7,0.6-1,1.7-0.8,2.7
			c0.4,1.4,1.8,2.2,3.2,1.8l0.1,0c0.3-0.1,0.5-0.1,0.8-0.2c-7.4,5-12.2,13.5-12.2,23.1l11.1-1.9c0-7.6,8.5-13.7,19-13.7
			c10.5,0,19,6.1,19,13.7l6.6,1.9c0-5.9-1.9-11.4-5-15.9c1.5,0.9,3,1.8,4.6,2.7l0.1,0.1c0.6,0.3,1.3,0.5,2,0.3
			c1.5-0.3,2.4-1.8,2-3.3C241.5,187.1,238.3,182.8,234.2,179.7z"/>
		<path class="st0" d="M270.5,294.8h-1.7c-0.5,1.8-2.1,3-4,3h-25.4c-1.9,0-3.5-1.3-4-3h-2.9c-2.8,0-5.1,2.3-5.1,5.1v1.4
			c0,2.8,2.3,5.1,5.1,5.1h38c2.8,0,5.1-2.3,5.1-5.1v-1.4C275.6,297.1,273.3,294.8,270.5,294.8z"/>
		<path class="st0" d="M264.3,242.9v0.2c0.2-0.1,0.4-0.3,0.6-0.4C264.7,242.7,264.5,242.8,264.3,242.9z"/>
		<path class="st0" d="M213.5,212.4c3.2,0,6.3-0.9,8.9-2.4c1.3-1.6,2.1-3.6,2.1-5.8c0-2.9-1.4-5.4-3.4-7.1c-2.3-1.1-4.8-1.7-7.5-1.7
			c-0.3,0-0.7,0-1,0.1c-3.7,1.2-6.5,4.6-6.5,8.7c0,3.3,1.8,6.2,4.4,7.8C211.5,212.3,212.5,212.4,213.5,212.4z"/>
		<path class="st0" d="M295,212.2c2.7-1.6,4.4-4.5,4.4-7.8c0-4.1-2.7-7.6-6.5-8.7c-0.3,0-0.6-0.1-1-0.1c-2.7,0-5.2,0.6-7.5,1.7
			c-2.1,1.7-3.4,4.2-3.4,7.1c0,2.2,0.8,4.2,2.1,5.8c2.6,1.5,5.6,2.4,8.9,2.4C293,212.4,294,212.3,295,212.2z"/>
		<path class="st0" d="M401.8,367.9l-30.2-11.5c-0.7-5.8-1.9-10.9-3.2-15.2l-6.8-21.2l-27.6,8.7c0,0,0,1,0,2.7
			c-0.1-0.3-0.2-0.6-0.3-1c-1-4.3-1.7-9-2.1-13.7c-0.4-4.7-0.7-9.6-0.7-14.4c0-1.2,0-2.5,0-3.4l0.2-3.7l0.2-3.6l0.1-1.7l0.1-0.8v0
			c2.9-7.7,4.6-16,5-24.6c0.1,0,0.1,0,0.2,0.1c6.3,1.1,12.3-3.2,13.4-9.5l8.3-47.9c1.1-6.3-3.2-12.3-9.5-13.4
			c-1.8-0.3-3.6-0.1-5.3,0.4c7.1-11.8,11.2-25.5,11.2-40.3c0-3.3-0.2-6.5-0.6-9.7c1.9-1,3.6-2.5,4.8-4.5
			c9.1-14.8,4.5-34.2-10.3-43.4c-3.4-2.1-7-3.4-10.8-4.1c-6.3-9.7-14.7-17.9-24.6-24C293.1,61,271.3,57,248.6,57
			c-8.9,0-17.6,0.6-26.2,1.8c-0.3,0.2-0.7,0.5-1,0.7c-11.2,1.6-21.6,5.5-30.7,11.2c-7.6-1.3-15.7,3.6-15.7,13
			c-12.7,13.7-20.5,31.9-20.8,51.9c-1.4,5.8-2.1,11.9-2.1,18.2c0,14.6,4,28.3,11,39.9c-6.1,1.3-10.2,7.2-9.1,13.3l8.3,47.9
			c1,5.8,6.1,9.8,11.8,9.6c0.6,13.2,4.4,25.7,10.7,36.5l0.6,5.8l0.3,3.7c0.1,0.7,0,0.9,0.1,1.6l0.1,1.8c0.1,4.8,0.1,9.6-0.2,14.4
			c-0.3,4.7-0.7,9.4-1.6,13.7c-0.2,1.1-0.5,2.1-0.7,3.1c0,0,0,0,0,0.1l-8.5-11.7l-36.1,26.1l13,18.1c0.8,1.1,1.7,2.4,2.8,4
			c-9.1,6-19.4,12.1-28.8,17.6c29.8,24.6,67,40.5,107.7,43.7l-1.1-0.3c-4-1.1-5.6-7.1-5.6-7.1l-2.1-9.6
			c-4.3-20.2-16.3-42.4-25.5-57.3c0.1-0.3,0.3-0.7,0.4-1c0.4-1,0.7-2.1,1-3.1l0.9-3.1l-0.7,1.4c1.6-3.8,2.5-7.3,2.8-10.4
			c0.2-1.6,0.4-3.1,0.4-4.6c0.1-1.5,0.1-2.9,0-4.3c-0.1-5.7-0.7-11-1.6-16.2c-0.3-1.9-0.7-3.8-1-5.7c14.3,12.7,33.2,20.4,53.8,20.4
			c24.6,0,46.7-11,61.6-28.3c-0.1,1.1-0.2,2.1-0.2,3.2c-0.3,5.2-0.4,10.5,0.1,16c0.2,2.8,0.6,5.6,1.3,8.6c0.7,3,1.6,6.1,3.6,9.6
			L321,350c0.7,1.8,1.4,3.4,2.2,5.1c0.8,1.7,1.6,3.4,3,5.6l0.6,0.9l0.9,1.1l0.4,0.6c0.3,0.5,0.6,1,1,1.5c0.3,0.6,0.6,1.2,0.9,1.8
			c-4.1,17.8-12.3,37.2-28.9,46.7l-13.3,7.5l2.7,18.1C335.5,429,374.6,403.3,401.8,367.9z M255.4,317.8c-18.5,0-35.5-6-49.2-16.3
			c0.7-3.3,2-6.4,3.7-9c0.7-0.9,1.3-1.9,2.1-2.7c0.4-0.4,0.8-0.8,1.2-1.2l1.6-1.4c1.1-0.9,2.1-1.9,3.2-2.7h30.9
			c-0.7-0.9-1.2-2-1.2-3.3v-7.9c1.7-0.2,3.4-0.3,5.1-0.3c1.8,0,3.6,0.1,5.5,0.3v7.9c0,1.3-0.5,2.4-1.2,3.3h30.4l0.1,0.1
			c1.1,0.8,2.1,1.8,3.2,2.7l1.6,1.4c0.4,0.4,0.9,0.8,1.2,1.2c0.8,0.8,1.4,1.8,2.1,2.7c2.3,3.4,3.7,7.5,4.2,12.1
			C287.1,313,271.8,317.8,255.4,317.8z M309.8,297.3c-0.1-3.7-1-7.5-2.7-11c-0.8-1.8-1.9-3.5-3.1-5c-0.6-0.8-1.3-1.5-1.9-2.3
			l-1.9-1.8c-1.3-1.2-2.5-2.4-3.8-3.5l-4.1-3.2c-4.9-3.4-10.2-6.3-15.8-8.3c2.4-2.1,3.9-5.2,3.9-8.6c0-4.9-3-9.1-7.3-10.8
			c2,1.3,3.3,3.6,3.3,6.1c0,4.1-3.3,7.4-7.4,7.4c-1.7,0-3.3-0.6-4.6-1.6c-0.3,1.5-0.9,2.9-1.7,4.1c-0.1,0-0.1,0-0.2,0
			c-2.1,3-5.6,5-9.5,5c-3.9,0-7.4-2-9.5-5c0,0-0.1,0-0.1,0c-0.6-0.9-1.1-1.9-1.5-3c-0.8,0.3-1.6,0.5-2.5,0.5c-4.1,0-7.4-3.3-7.4-7.4
			c0-2.7,1.5-5,3.6-6.3c-4.6,1.5-8,5.8-8,11c0,3.2,1.3,6.1,3.4,8.2c-6.1,2.1-11.8,5.1-17.1,8.8l-4.1,3.2c-1.4,1.1-2.6,2.3-3.8,3.5
			l-1.9,1.8c-0.6,0.7-1.3,1.5-1.9,2.3c-1.2,1.6-2.3,3.2-3.1,5c-1.1,2.1-1.8,4.4-2.2,6.6c-8.9-9.2-15.7-20.4-19.5-32.9
			c-2.1-7.3-3.3-15-3.3-23l0.9-93.8c0-12.7,2.9-24.7,8.1-35.4c1.4,2,2.9,3.9,4.7,5.6c7.9,7.9,18.5,12.3,29.8,12.3
			c8.9,0,17.4-2.8,24.4-7.9H299c1.8,0,3.6-0.2,5.3-0.5c0.9,2.7,2.7,5.1,5.3,6.7c6,3.7,13.8,1.8,17.5-4.2c1.2-1.9,2.9-2.5,3.8-2.7
			c0.5-0.1,1.2-0.2,2.1-0.1c1.4,4,2.4,8.2,3.2,12.5c-0.9,3.2-0.5,6.6,1.1,9.4c0.1,1.4,0.1,2.8,0.1,4.3l-0.9,93.8
			C336.3,257.6,320.2,288.2,309.8,297.3z"/>
	</g>
</g>
</svg>
